<?xml version="1.0" encoding="utf-8"?>
<svg width="20" height="20" viewBox="0 0 20 20" fill="none" xmlns="http://www.w3.org/2000/svg">
  <defs/>
  <path fill-rule="evenodd" clip-rule="evenodd" d="M 7.188 15.086 C 6.979 15.295 6.979 15.635 7.188 15.844 C 7.398 16.054 7.738 16.054 7.947 15.844 L 13.811 9.98 C 13.942 9.85 13.991 9.669 13.959 9.5 C 13.991 9.331 13.942 9.15 13.811 9.02 L 7.947 3.156 C 7.738 2.946 7.398 2.946 7.188 3.156 C 6.979 3.365 6.979 3.705 7.188 3.915 L 12.774 9.5 L 7.188 15.086 Z" fill="#1C0A41" style="transform-box: fill-box; transform-origin: 50% 50%;" transform="matrix(-1, 0, 0, -1, 0, -0.000001)"/>
  <mask id="mask0_14_21320" style="mask-type:luminance" maskUnits="userSpaceOnUse" x="7" y="2" width="7" height="15">
    <path fill-rule="evenodd" clip-rule="evenodd" d="M7.18853 3.9145C6.97899 3.70496 6.97899 3.36523 7.18853 3.15569C7.39807 2.94615 7.7378 2.94615 7.94734 3.15569L13.8115 9.01986C13.942 9.15038 13.9912 9.3314 13.9592 9.50001C13.9912 9.66862 13.942 9.84964 13.8115 9.98015L7.94734 15.8443C7.7378 16.0539 7.39807 16.0539 7.18853 15.8443C6.97899 15.6348 6.97899 15.2951 7.18853 15.0855L12.774 9.50001L7.18853 3.9145Z" fill="white"/>
  </mask>
  <g mask="url(#mask0_14_21320)"/>
</svg>